<?xml version="1.0" encoding="utf-8"?>
<!-- Generator: Adobe Illustrator 24.1.2, SVG Export Plug-In . SVG Version: 6.00 Build 0)  -->
<svg version="1.1" id="Layer_1" xmlns="http://www.w3.org/2000/svg" xmlns:xlink="http://www.w3.org/1999/xlink" x="0px" y="0px"
	 viewBox="0 0 45 45" style="enable-background:new 0 0 45 45;" xml:space="preserve">
<style type="text/css">
	.st0{fill:url(#SVGID_1_);}
	.st1{fill:url(#SVGID_2_);}
	.st2{fill:url(#SVGID_3_);}
</style>
<linearGradient id="SVGID_1_" gradientUnits="userSpaceOnUse" x1="11.2481" y1="3.0112" x2="33.7519" y2="41.9888">
	<stop  offset="1.047943e-03" style="stop-color:#000F1E"/>
	<stop  offset="0.1413" style="stop-color:#000F1E"/>
	<stop  offset="0.1643" style="stop-color:#000F1E"/>
	<stop  offset="1" style="stop-color:#000B4C"/>
</linearGradient>
<circle class="st0" cx="22.5" cy="22.5" r="22.5"/>
<g>
	<linearGradient id="SVGID_2_" gradientUnits="userSpaceOnUse" x1="0" y1="22.5" x2="45" y2="22.5">
		<stop  offset="1.047943e-03" style="stop-color:#000F1E"/>
		<stop  offset="0.1413" style="stop-color:#000F1E"/>
		<stop  offset="0.1643" style="stop-color:#000F1E"/>
		<stop  offset="0.8041" style="stop-color:#000B3E"/>
		<stop  offset="0.8318" style="stop-color:#000B3E"/>
		<stop  offset="1" style="stop-color:#000B3E"/>
	</linearGradient>
	<path class="st1" d="M9.68,22.5L0,22.5 M29.71,22.3L9.68,12.52v19.96l20.03-9.78C29.87,22.62,29.87,22.38,29.71,22.3z M32.71,19.91
		c-1.43,0-2.59,1.16-2.59,2.59c0,1.43,1.16,2.59,2.59,2.59c1.43,0,2.59-1.16,2.59-2.59C35.3,21.07,34.14,19.91,32.71,19.91z
		 M35.3,22.5l9.7,0"/>
	<linearGradient id="SVGID_3_" gradientUnits="userSpaceOnUse" x1="11.6527" y1="35.4273" x2="32.0561" y2="11.1114">
		<stop  offset="1.047943e-03" style="stop-color:#E3AE00"/>
		<stop  offset="0.2226" style="stop-color:#E3AD00"/>
		<stop  offset="0.8425" style="stop-color:#E6380A"/>
		<stop  offset="1" style="stop-color:#E6360A"/>
	</linearGradient>
	<path class="st2" d="M9.15,33.33v-10.3H0v-1.05h9.15v-10.3L29.7,21.71c0.35-1.34,1.57-2.32,3.02-2.32c1.54,0,2.82,1.12,3.07,2.59
		H45v1.05h-9.22c-0.25,1.47-1.53,2.59-3.07,2.59c-1.44,0-2.66-0.99-3.02-2.32L9.15,33.33z M10.2,13.36v18.27l18.72-9.14L10.2,13.36z
		 M32.71,20.44c-1.14,0-2.06,0.93-2.06,2.06s0.93,2.06,2.06,2.06s2.06-0.93,2.06-2.06S33.85,20.44,32.71,20.44z M29.47,22.23
		C29.47,22.23,29.47,22.23,29.47,22.23L29.47,22.23z"/>
</g>
</svg>
