<?xml version="1.0" encoding="utf-8"?>
<!-- Generator: Adobe Illustrator 24.1.2, SVG Export Plug-In . SVG Version: 6.00 Build 0)  -->
<svg version="1.1" id="Layer_1" xmlns="http://www.w3.org/2000/svg" xmlns:xlink="http://www.w3.org/1999/xlink" x="0px" y="0px"
	 viewBox="0 0 48 48" style="enable-background:new 0 0 48 48;" xml:space="preserve">
<style type="text/css">
	.st0{fill:#020202;}
</style>
<g>
	<g>
		<g>
			<path class="st0" d="M6.9,8.3c0.3,0.1,0.5,0.3,0.8,0.4c4.9,2.6,9.9,5.1,15.4,7.9c1.9,1,4,2.1,6.1,3.1c2.3,1.2,4.7,2.3,6.9,3.4
				c-4.9-2.5-9.8-4.9-14.7-7.4c-4.6-2.4-9.2-4.7-13.5-7.1c1,0.3,2.1,0.7,3.3,1.3c3,1.5,5.9,3,8.8,4.5c0,0.1-0.1,0.2-0.1,0.2
				c2.9,1.4,5.7,2.8,8.5,4.2c1.4,0.7,2.8,1.4,4.1,2.1c2,1,4.1,2.1,6.1,3.1c-1.9,0.9-3.8,1.9-5.7,2.8c-1.3,0.6-2.5,1.3-3.8,2
				c0.3-0.1,0.2,0,0.1,0.1h-0.1h0.1c0,0.1,0,0.1,0.5-0.2c-0.5,0.3-0.6,0.2-0.5,0.2c3.3-1.7,6.6-3.3,9.8-4.9c-3.5-1.7-7-3.5-10.5-5.2
				c-2.7-1.4-5.4-2.8-8.3-4.2c2.8,1.4,5.5,2.8,8.3,4.1c3.6,1.8,7.1,3.5,10.7,5.3c-7.8,3.9-15.7,7.8-23.9,11.9
				c-0.6,0.3-1.7,0.8-2.2,1.1c-2.3,0.9-4.5,2-6.8,3.1c0.4-0.6-2.1,0,2.4-2.1c0-0.1-0.1-0.2-0.1-0.2C4,39.7,2,39.7,6.3,37.3
				c4.9-2.7,11.6-5.8,17.7-8.9c1.9-1,3.8-1.9,5.7-2.9c1-0.5,1.9-0.9,2.9-1.4c0.1,0,0,0,0.1,0l0,0l0,0l0,0c0,0,0,0,0.1,0l0,0l0,0l0,0
				l0,0h-0.1L32.6,24l-1.1-0.6c-0.8-0.4-1.6-0.8-2.3-1.2c-1.6-0.8-3.2-1.6-4.7-2.4C21.1,18,18,16.3,15,14.7
				c-2.2-1.2-6.2-2.9-7.2-3.6c-0.8-0.5-0.7-0.6-0.5-0.7c3.6,1.8,7.3,3.6,10.8,5.4c4.4,2.2,8.8,4.5,13.1,6.8
				c-4.2-2.3-8.6-4.5-13.1-6.8C14.5,14,11,12.2,7.4,10.4c0.2-0.1,0.4-0.1,0.2-0.3c0,0-1.1-0.5-1.7-0.8c-2-1.5-1.3-1.6,0-1.3
				C6.2,8.1,6.6,8.2,6.9,8.3z"/>
		</g>
	</g>
</g>
<g>
	<g>
		<g>
			<g>
				<path class="st0" d="M6.3,9.4C6.3,9.4,6.2,9.4,6.3,9.4c0,0,0-0.1,0-0.2c-0.2,1-0.1,2.2,0.1,3c0,0.3,0.1,0.6,0.1,0.6
					c0.1,0,0.2-0.2,0.2-0.5c0-0.1,0-0.1,0-0.2c0.1-0.4,0.2-0.9,0.3-1.5c0,0.1,0,0.2-0.1,0.3c0-0.2,0-0.3,0-0.5c0,0,0,0,0,0.1
					C7,10,7,9.2,6.8,8.8C6.7,8.4,6.4,8.5,6.3,9.1V9.4z"/>
				<path class="st0" d="M5.8,10.4c0.1-0.3,0.1-0.7,0.2-1V9.3H5.9l0,0C6,9.7,6,10.2,6,10.6v0.2c0,0.1,0,0.1,0.1,0.1s0.1-0.1,0.1-0.3
					v-0.2c0.1-0.6,0.1-1.5-0.1-1.9c0-0.1-0.1,0-0.1,0C5.9,8.5,5.8,8.7,5.8,9s0.1,0.6,0.1,0.6c0,0.1,0,0.1,0,0.2V9.7
					C6,9.7,6,10,6,10.2v0.3l0.2-0.2v-0.2l0,0C6.1,9.9,6.1,9.6,6,9.3V8.9c0-0.1-0.1-0.1-0.1,0v0.2V9c0,0.4-0.1,0.9-0.1,1.3
					C5.7,10.4,5.7,10.4,5.8,10.4C5.7,10.5,5.8,10.5,5.8,10.4z"/>
				<g>
					<path class="st0" d="M5.7,8.9c0-0.1,0-0.1,0-0.2l0,0V8.9L5.7,8.9z"/>
					<path class="st0" d="M5.8,8.6L5.8,8.6L5.8,8.6L5.8,8.6L5.8,8.6z"/>
					<path class="st0" d="M6.1,27.3c0,1.3-0.1,2.6-0.1,4v0.1c0,0,0,0,0-0.1C6.1,29.9,6.1,28.6,6.1,27.3C6.2,27.2,6.2,27.2,6.1,27.3
						C6.1,27.2,6.1,27.2,6.1,27.3z"/>
					<path class="st0" d="M4.9,37.2C4.9,37.1,4.9,37.1,4.9,37.2L4.9,37.2L4.9,37.2C4.9,37.2,4.9,37.2,4.9,37.2z"/>
					<path class="st0" d="M3.9,36.9c0-0.2,0-0.4-0.1-0.5v-0.1c0,0,0,0,0-0.1c-0.2-1.3-0.2-2.7-0.3-4.1c0,0,0,0,0-0.1
						c-0.1-0.1-0.1-0.3-0.1-0.5v-0.2c0-0.6,0.1-1.2,0.1-1.8c0-0.1,0-0.3,0-0.4c-0.1-0.5-0.1-1.1-0.2-1.6v0.1c0,0-0.1-0.1-0.1-0.3
						c0-0.1,0-0.1,0-0.2c0,0.2,0,0.4,0,0.6v0.1c0,0.2,0,0.5,0,0.7c0,2.1,0.2,4,0.4,6v0.1l0,0c-0.2-1.2-0.5-2.3-0.7-3.7
						c-0.2-1.6-0.3-3.3-0.4-5c0-1.8-0.1-3.4-0.2-5.2C2,18.3,2,16,2,13.6c0-0.9,0.1-1.7,0.4-1.8c0.2-0.1,0.3,0.1,0.4,0.5
						c0-0.1,0-0.1,0-0.2v-0.3C2.9,11.4,3,11.2,3,11l0.1-0.2c0.2-0.3,0.4-0.8,0.6-1.1l0.1,0.1V9.7C3.9,9.4,4,9.3,4.1,9.2h0.1
						c0.1,0,0.2,0.1,0.3,0.3c0,0,0.1,0,0.1,0.1c0.1-0.1,0.2-0.2,0.3-0.1c0-0.1,0.1-0.1,0.1,0v0.1l0,0c0,0,0-0.1,0.1-0.1
						c0-0.1,0-0.1,0-0.1c0-0.2,0-0.2,0-0.4s0.1-0.3,0.1-0.3c0.2-0.2,0.2-0.2,0.3-0.2l0,0c0-0.1,0-0.2,0-0.2V8.2c0,0,0,0,0.1,0l0,0
						c0,0.1,0,0.1,0.1,0.1l0,0c0,0.1,0,0.1,0,0.2C5.6,8.8,5.6,8.8,5.6,8.8l0,0l0,0l0,0c0,0.1,0,0.1,0,0.1c0-0.1,0-0.1,0-0.1
						c0,0.2,0,0.2,0,0.3s0,0.2,0,0.2l0,0c0,0.3,0,0.3,0,0.5c0,0,0,0,0,0.1V10v0.1l0,0l0,0v0.1l0,0l0,0c0,0.1,0,0.2,0.1,0.5
						c0,0.1,0,0.2,0,0.2s0,0,0-0.1h0.1C5.9,10.5,5.9,9.9,6,9.2C6,9.1,6,9,6,9s0.1,0.1,0.1,0.2c0.2,1.2,0.2,2.7,0,4
						c0,0.3,0,0.7-0.1,1l0,0c0,0.1,0,0.2,0,0.3l0,0c0-0.1,0-0.1,0.1-0.2v-0.1c0-0.8,0.1-1.5,0.2-2.2c0-0.4,0.1-0.8,0.2-1.1
						c0-0.1,0-0.2,0.1-0.2c0,0,0,0.1,0,0.2c0,1.3,0,2.7-0.2,3.7c0,0.2,0,0.5-0.1,0.6l0,0c0,0,0-0.1,0.1-0.1c0,0.2-0.1,0.3-0.1,0.4
						c0,0,0.1,0,0.1-0.1c-0.1,0.9,0,1.8-0.1,2.6v0.1c0.1,0.3,0.1,0.7,0.1,1.1c0-0.1,0-0.3,0-0.4c0,0.3,0.1,0.6,0.1,0.9
						c0,0.9-0.1,1.8-0.3,2.3c0,1.7,0,3.3,0.1,5c0,0.1,0,0.2,0,0.2s0,0-0.1-0.1c-0.1-1.2-0.1-2.4-0.2-3.6c0,1-0.1,2-0.1,3
						c0,0.1,0,0.3,0,0.4s0,0.3,0,0.4c0,1.3,0,2.6,0,3.9c0,1,0.1,2,0.1,3.2c0.1,1.6,0.3,3,0.3,4.6c0,0.2,0,0.4-0.1,0.4
						s-0.1-0.1-0.1-0.3c-0.2-3.3-0.4-6.5-0.4-10c0-0.4,0-0.7,0-1.1l0,0c0,0-0.1,0-0.1-0.1c0,0.4,0,0.8,0,1.2
						c0.1,1.2,0.1,2.3,0.1,3.6c0,0.9-0.1,1.6-0.2,2.4c0,1,0.1,2,0.1,3v0.1l0,0c-0.1-0.7-0.1-1.4-0.2-2.1c0,0.1-0.1,0.2-0.1,0.2
						c-0.1,0-0.1-0.1-0.1-0.2c0,0.2,0,0.3,0,0.5c0,0.1,0,0.2-0.1,0.2c0,0-0.1-0.1-0.1-0.2c0-0.7,0-1.3,0-2c0-0.8-0.1-1.6-0.1-2.4
						c0,0.1-0.1,0.2-0.1,0.2l0,0c0,0.1,0,0.2,0,0.4C4.9,35,5,37.3,5,39.6v0.1c0,0,0,0,0-0.1c0-0.7,0-1.4,0-2.1l0,0l0,0v-0.1l0,0
						c0-1.3-0.1-2.6-0.2-3.9c0,1.2,0,2.4,0,3.5c0,0.1,0,0.3,0,0.4v0.1c0,0,0,0,0-0.1v-0.1c0,0.2-0.1,0.4-0.1,0.4
						c-0.1,0-0.1-0.2-0.1-0.4c0-0.6,0-1.2,0-1.9c0-0.1,0-0.1,0-0.2c0-0.1,0-0.1,0-0.2c0,1-0.1,1.9-0.1,2.9c0,0.1,0,0.2,0,0.2V38
						c-0.1-1.7-0.2-3.4-0.2-5.1c-0.1-0.6-0.2-1.1-0.3-1.7c0,0.1,0,0.1,0,0.2c0,1.9,0.3,3.4,0.4,5.2v0.1c0,0,0,0,0-0.1
						c0-0.9-0.1-1.7-0.2-2.6c-0.1-0.7-0.1-1.4-0.2-2.1c0,1.4,0.2,2.7,0.2,4.1c0,0.1,0,0.1,0,0.2l0,0C3.9,36.4,3.9,36.6,3.9,36.9
						L3.9,36.9L3.9,36.9z M5.3,13L5.3,13L5.3,13c0,0.1,0,0.1-0.1,0.3C5.2,13.2,5.2,13.1,5.3,13z M4.9,10.9L4.9,10.9
						C5,10.8,5,10.8,4.9,10.9C5,10.8,5,10.9,4.9,10.9z M5.8,24.3c0-0.7,0-1.4,0.1-2.2c0,0.2,0,0.3,0,0.5C5.9,23.2,5.8,23.8,5.8,24.3
						z M5.7,11.6c-0.1,0.2-0.1,0.3-0.2,0.5c0,0.1,0,0.3,0,0.4c0,0.4,0,0.7,0,1c0,0,0,0,0,0.1v0.1c0-0.4,0.1-0.7,0.1-1.1
						C5.6,12.3,5.6,11.9,5.7,11.6z M5.5,9L5.5,9L5.5,9C5.6,9.1,5.6,9,5.5,9z M5.4,8.9C5.4,8.9,5.4,9,5.4,8.9C5.4,9,5.4,8.9,5.4,8.9z
						 M5.4,9.4L5.4,9.4L5.4,9.4z M3.9,9.7l0.3,0.2L3.9,9.7L3.9,9.7z"/>
				</g>
			</g>
		</g>
	</g>
</g>
<g>
	<g>
		<g>
			<path class="st0" d="M40,21.5c-0.1,0-0.1,0-0.2,0c-0.7,0.1-1.3,0.5-1.7,1c-0.4,0.6-0.6,1.4-0.5,2.2c0,0.6,0.4,1.2,0.8,1.6
				c0.5,0.4,1.1,0.7,1.6,0.7c-1.4-0.2-2.5-1.5-2.5-2.8c-0.1-1.3,1.1-2.5,2.2-2.4c-0.1,0.2-0.3,0.5-0.5,0.6c-0.5,0.3-0.9,0.8-1,1.5
				c-0.1,0-0.2,0-0.3,0c0,1,0.5,2,1.4,2.5c0.9,0.6,2.2,0.4,2.8-0.5c-0.1,0-0.1-0.1-0.1-0.1l0,0l0,0c0,0-0.1-0.1-0.1,0
				c0.1-0.1,0.1-0.1,0.1,0c-0.7,0.7-1.8,0.8-2.6,0.4s-1.3-1.4-1.2-2.3c-0.1,0.7,0.2,1.4,0.7,1.9s1.3,0.6,2,0.5
				c0.7-0.2,1.2-0.7,1.5-1.3c0.2-0.6,0.2-1.4-0.2-2c-0.1-0.1-0.2-0.3-0.3-0.4c-0.2-0.5-0.7-0.9-1.2-1c0.1-0.2,0-0.5,0.1-0.7
				c0-0.2,0.3-0.4,1,0c0-0.1,0.1-0.2,0.1-0.3c-0.7-0.5-1.3-0.9-1.6-1.3c-0.1-0.2-0.1-0.4,0.1-0.5c0.2-0.1,0.6-0.3,1.3-0.2
				c1.4,0.2,3,1.2,3.8,2.8c0.8,1.6,0.8,3.6,0.1,5.2c-0.5,1.2-1.4,2.2-2.6,2.8c-1.2,0.6-2.6,0.8-3.8,0.5c-1.7-0.4-3.3-1.7-4-3.3
				c-0.8-1.6-0.6-3.6,0.3-5c0.3-0.5,0.8-1.2,1.3-1.7c0.6-0.5,1.2-0.8,1.5-0.8c0.4,0,0.5,0.1,0.5,0.3c-1.7,0.5-3,2-3.4,3.7
				c-0.5,2.1,0.5,4.6,2.5,5.7c-2-1.2-3-3.5-2.5-5.7c0.4-1.7,1.8-3.1,3.4-3.5c0,0.2,0,0.4,0.1,0.5c0,0,0.4-0.1,0.7-0.2
				c1,0.3,0.6,0.9,0.4,1.3C40.2,21.3,40.1,21.4,40,21.5z"/>
		</g>
	</g>
</g>
</svg>
