<?xml version="1.0" encoding="utf-8"?>
<!-- Generator: Adobe Illustrator 24.1.2, SVG Export Plug-In . SVG Version: 6.00 Build 0)  -->
<svg version="1.1" id="Layer_1" xmlns="http://www.w3.org/2000/svg" xmlns:xlink="http://www.w3.org/1999/xlink" x="0px" y="0px"
	 viewBox="0 0 48 48" style="enable-background:new 0 0 48 48;" xml:space="preserve">
<style type="text/css">
	.st0{fill:url(#SVGID_1_);}
	.st1{fill:url(#SVGID_2_);}
	.st2{fill:url(#SVGID_3_);}
</style>
<linearGradient id="SVGID_1_" gradientUnits="userSpaceOnUse" x1="11.998" y1="-47.2119" x2="36.002" y2="-88.7881" gradientTransform="matrix(1 0 0 -1 0 -44)">
	<stop  offset="1.047943e-03" style="stop-color:#000F1E"/>
	<stop  offset="0.1413" style="stop-color:#000F1E"/>
	<stop  offset="0.1643" style="stop-color:#000F1E"/>
	<stop  offset="1" style="stop-color:#000B4C"/>
</linearGradient>
<circle class="st0" cx="24" cy="24" r="24"/>
<g>
	
		<linearGradient id="SVGID_2_" gradientUnits="userSpaceOnUse" x1="0" y1="-68" x2="48" y2="-68" gradientTransform="matrix(1 0 0 -1 0 -44)">
		<stop  offset="1.047943e-03" style="stop-color:#000F1E"/>
		<stop  offset="0.1413" style="stop-color:#000F1E"/>
		<stop  offset="0.1643" style="stop-color:#000F1E"/>
		<stop  offset="0.8041" style="stop-color:#000B3E"/>
		<stop  offset="0.8318" style="stop-color:#000B3E"/>
		<stop  offset="1" style="stop-color:#000B3E"/>
	</linearGradient>
	<path class="st1" d="M10.3,24H0 M31.7,23.8L10.3,13.4v21.3l21.4-10.4C31.9,24.1,31.9,23.9,31.7,23.8z M34.9,21.2
		c-1.5,0-2.8,1.2-2.8,2.8s1.2,2.8,2.8,2.8s2.8-1.2,2.8-2.8S36.4,21.2,34.9,21.2z M37.7,24H48"/>
	
		<linearGradient id="SVGID_3_" gradientUnits="userSpaceOnUse" x1="12.4308" y1="-81.793" x2="34.1919" y2="-55.859" gradientTransform="matrix(1 0 0 -1 0 -44)">
		<stop  offset="1.047943e-03" style="stop-color:#E3AE00"/>
		<stop  offset="0.2226" style="stop-color:#E3AD00"/>
		<stop  offset="0.8425" style="stop-color:#E6380A"/>
		<stop  offset="1" style="stop-color:#E6360A"/>
	</linearGradient>
	<path class="st2" d="M9.8,35.6v-11H0v-1.1h9.8v-11l21.9,10.7c0.4-1.4,1.7-2.5,3.2-2.5c1.6,0,3,1.2,3.3,2.8H48v1.1h-9.8
		c-0.3,1.6-1.6,2.8-3.3,2.8c-1.5,0-2.8-1.1-3.2-2.5L9.8,35.6z M10.9,14.3v19.5l20-9.7L10.9,14.3z M34.9,21.8c-1.2,0-2.2,1-2.2,2.2
		s1,2.2,2.2,2.2c1.2,0,2.2-1,2.2-2.2S36.1,21.8,34.9,21.8z M31.4,23.7L31.4,23.7L31.4,23.7z"/>
</g>
</svg>
